<svg id="Layer_1" data-name="Layer 1" xmlns="http://www.w3.org/2000/svg" viewBox="0 0 367.11 77.93"><defs><style>.cls-1{fill:#58327d;}</style></defs><title>Eventige-Media-Group-Logo</title><polygon class="cls-1" points="0 50.96 33.63 50.96 33.63 42.1 9.51 42.1 9.51 29.86 31.54 29.86 31.54 21.15 9.51 21.15 9.51 9.41 33.63 9.41 33.63 0.55 0 0.55 0 50.96"/><polygon class="cls-1" points="101.25 50.96 134.88 50.96 134.88 42.1 110.75 42.1 110.75 29.86 132.79 29.86 132.79 21.15 110.75 21.15 110.75 9.41 134.88 9.41 134.88 0.55 101.25 0.55 101.25 50.96"/><polygon class="cls-1" points="194.6 9.19 209.94 9.19 209.94 50.96 219.45 50.96 219.45 9.19 234.71 9.19 234.71 0.55 194.6 0.55 194.6 9.19"/><rect class="cls-1" x="242.59" y="0.55" width="9.58" height="50.4"/><polygon class="cls-1" points="319.27 50.96 352.9 50.96 352.9 42.1 328.78 42.1 328.78 29.86 350.81 29.86 350.81 21.15 328.78 21.15 328.78 9.41 352.9 9.41 352.9 0.55 319.27 0.55 319.27 50.96"/><path class="cls-1" d="M487.33,403.2c0-.85-.57-1.33-1.59-1.33h-1.66v3.84H485v-1.08h.76l.57,1.08h1.09l-.81-1.26A1.32,1.32,0,0,0,487.33,403.2Zm-1.59.68H485V402.6h.71a.64.64,0,1,1,0,1.28Z" transform="translate(-122.45 -357.04)"/><path class="cls-1" d="M485.5,399.84a4.08,4.08,0,1,0,4.06,4.07A4.07,4.07,0,0,0,485.5,399.84Zm0,7.2a3.07,3.07,0,0,1-3.08-3.11,3.11,3.11,0,1,1,3.08,3.11Z" transform="translate(-122.45 -357.04)"/><polygon class="cls-1" points="47.93 69.03 41.96 62.43 40.19 62.43 40.19 77.59 43.21 77.59 43.21 68.16 47.93 73.18 52.68 68.16 52.68 77.59 55.7 77.59 55.7 62.43 53.92 62.43 47.93 69.03"/><polygon class="cls-1" points="71.43 77.59 81.49 77.59 81.49 74.76 74.45 74.76 74.45 71.44 80.88 71.44 80.88 68.65 74.45 68.65 74.45 65.48 81.49 65.48 81.49 62.64 71.43 62.64 71.43 77.59"/><path class="cls-1" d="M224.79,419.68H219v14.95h5.8c4.56,0,7.75-3.08,7.75-7.48S229.35,419.68,224.79,419.68Zm4.64,7.5c0,2.89-1.85,4.61-4.94,4.61H222v-9.28h2.45C227.58,422.51,229.43,424.26,229.43,427.18Z" transform="translate(-122.45 -357.04)"/><rect class="cls-1" x="124.98" y="62.64" width="3.04" height="14.95"/><path class="cls-1" d="M272.75,419.55H271l-6.43,15.08h3.26l1.05-2.52h6l1.05,2.52h3.26l-6.4-15Zm1,9.79H270l1.87-4.51Z" transform="translate(-122.45 -357.04)"/><path class="cls-1" d="M350.72,424.09c0-2.68-2-4.41-5.16-4.41h-6.17v14.95h3v-6.11l1.9,0,3.7,6,0,.06h3.49l-4-6.35A4.2,4.2,0,0,0,350.72,424.09Zm-3.08,0c0,1.05-.73,1.66-2,1.66h-3.23v-3.3h3.23C346.91,422.45,347.64,423.05,347.64,424.09Z" transform="translate(-122.45 -357.04)"/><path class="cls-1" d="M373.09,419.37a7.79,7.79,0,1,0,7.87,7.78A7.57,7.57,0,0,0,373.09,419.37Zm4.79,7.78a4.78,4.78,0,1,1-4.79-4.89A4.69,4.69,0,0,1,377.88,427.15Z" transform="translate(-122.45 -357.04)"/><path class="cls-1" d="M405.28,428.64a3.3,3.3,0,1,1-6.59,0v-9h-3v9.15c0,4.22,3.17,6.11,6.31,6.11s6.32-1.89,6.32-6.11v-9.15h-3Z" transform="translate(-122.45 -357.04)"/><path class="cls-1" d="M430,419.68h-6.19v14.95h3v-4.89H430c3.16,0,5.29-2,5.29-5.06S433.2,419.68,430,419.68Zm2.21,5c0,1.46-1,2.27-2.71,2.27h-2.67v-4.52h2.67C431.28,422.45,432.25,423.25,432.25,424.7Z" transform="translate(-122.45 -357.04)"/><path class="cls-1" d="M318.2,428.6h3.3a4.59,4.59,0,0,1-1.62,2.52,4.51,4.51,0,0,1-2.88,1,4.38,4.38,0,0,1-3.29-1.39,5,5,0,0,1,0-6.8,4.34,4.34,0,0,1,3.29-1.39,4.42,4.42,0,0,1,3.19,1.28l2.15-2.14A7.77,7.77,0,1,0,317,435a8.39,8.39,0,0,0,2.91-.5,7.59,7.59,0,0,0,2.42-1.47,6.84,6.84,0,0,0,1.68-2.57,10.2,10.2,0,0,0,.61-3.65v-.9H318.2Z" transform="translate(-122.45 -357.04)"/><polygon class="cls-1" points="177.11 32.88 148.61 0.55 142.76 0.55 142.76 50.96 152.27 50.96 152.34 18.63 180.98 51.05 186.76 51.05 186.76 0.55 177.18 0.55 177.11 32.88"/><polygon class="cls-1" points="70.35 50.96 93.34 0.55 82.61 0.55 67.42 34.4 52.23 0.55 41.5 0.55 64.49 50.96 70.35 50.96"/><path class="cls-1" d="M417.12,378.29l-8.55,8.54v.27h14.74a15.35,15.35,0,0,1-5.43,8.45,15,15,0,0,1-9.64,3.24,14.63,14.63,0,0,1-11.05-4.65,16.87,16.87,0,0,1,0-22.81,14.63,14.63,0,0,1,11.05-4.65,14.84,14.84,0,0,1,10.7,4.3l7.18-7.18A25.07,25.07,0,0,0,408.24,357q-11.13,0-18.41,7.29t-7.29,18.41q0,11.11,7.29,18.41t18.41,7.28a27.9,27.9,0,0,0,9.75-1.68,24.74,24.74,0,0,0,8.1-4.93,22.34,22.34,0,0,0,5.63-8.63A33.83,33.83,0,0,0,433.8,381v-2.69Z" transform="translate(-122.45 -357.04)"/></svg>