<?xml version="1.0" encoding="utf-8"?>
<!-- Generator: Adobe Illustrator 22.0.0, SVG Export Plug-In . SVG Version: 6.00 Build 0)  -->
<svg version="1.1" id="Layer_1" xmlns="http://www.w3.org/2000/svg" xmlns:xlink="http://www.w3.org/1999/xlink" x="0px" y="0px"
	 viewBox="0 0 367.1 77.4" style="enable-background:new 0 0 367.1 77.4;" xml:space="preserve">
<style type="text/css">
	.st0{fill:#FFFFFF;}
</style>
<g>
	<polygon class="st0" points="0,50.4 33.6,50.4 33.6,41.5 9.5,41.5 9.5,29.3 31.5,29.3 31.5,20.6 9.5,20.6 9.5,8.9 33.6,8.9 33.6,0 
		0,0 	"/>
	<polygon class="st0" points="101.3,50.4 134.9,50.4 134.9,41.5 110.8,41.5 110.8,29.3 132.8,29.3 132.8,20.6 110.8,20.6 110.8,8.9 
		134.9,8.9 134.9,0 101.3,0 	"/>
	<polygon class="st0" points="194.6,8.6 209.9,8.6 209.9,50.4 219.4,50.4 219.4,8.6 234.7,8.6 234.7,0 194.6,0 	"/>
	<rect x="242.6" class="st0" width="9.6" height="50.4"/>
	<polygon class="st0" points="319.3,50.4 352.9,50.4 352.9,41.5 328.8,41.5 328.8,29.3 350.8,29.3 350.8,20.6 328.8,20.6 328.8,8.9 
		352.9,8.9 352.9,0 319.3,0 	"/>
	<path class="st0" d="M364.9,45.6c0-0.9-0.6-1.3-1.6-1.3h-1.7v3.8h0.9V47h0.7h0l0.6,1.1h1.1l-0.8-1.3
		C364.6,46.6,364.9,46.2,364.9,45.6z M363.3,46.3h-0.7V45h0.7c0.4,0,0.7,0.2,0.7,0.6C364,46.1,363.7,46.3,363.3,46.3z"/>
	<path class="st0" d="M363.1,42.3c-2.3,0-4.1,1.9-4.1,4.1s1.8,4.1,4,4.1c2.3,0,4.1-1.9,4.1-4.1C367.1,44.1,365.3,42.3,363.1,42.3z
		 M363,49.4c-1.8,0-3.1-1.4-3.1-3.1s1.3-3.1,3.1-3.1c1.8,0,3.1,1.4,3.1,3.1C366.2,48,364.8,49.4,363,49.4z"/>
	<polygon class="st0" points="47.9,68.5 42,61.9 40.2,61.9 40.2,77 43.2,77 43.2,67.6 47.9,72.6 52.7,67.6 52.7,77 55.7,77 
		55.7,61.9 53.9,61.9 	"/>
	<polygon class="st0" points="71.4,77 81.5,77 81.5,74.2 74.5,74.2 74.5,70.9 80.9,70.9 80.9,68.1 74.5,68.1 74.5,64.9 81.5,64.9 
		81.5,62.1 71.4,62.1 	"/>
	<path class="st0" d="M102.3,62.1h-5.8V77h5.8c4.6,0,7.7-3.1,7.7-7.5S106.9,62.1,102.3,62.1z M107,69.6c0,2.9-1.8,4.6-4.9,4.6h-2.5
		v-9.3h2.5C105.1,64.9,107,66.7,107,69.6z"/>
	<rect x="125" y="62.1" class="st0" width="3" height="14.9"/>
	<path class="st0" d="M150.3,62h-1.8L142.1,77h3.3l1-2.5h6l1,2.5h3.3L150.3,62L150.3,62z M151.3,71.7h-3.7l1.9-4.5L151.3,71.7z"/>
	<path class="st0" d="M228.3,66.5c0-2.7-2-4.4-5.2-4.4h-6.2V77h3v-6.1l1.9,0l3.7,6l0,0.1h3.5l-4-6.3
		C227.1,70.1,228.3,68.5,228.3,66.5z M225.2,66.5c0,1.1-0.7,1.7-2,1.7H220v-3.3h3.2C224.5,64.9,225.2,65.5,225.2,66.5z"/>
	<path class="st0" d="M250.6,61.8c-4.6,0-7.9,3.3-7.9,7.8s3.3,7.8,7.9,7.8s7.9-3.3,7.9-7.8S255.2,61.8,250.6,61.8z M255.4,69.6
		c0,3.4-2.5,4.9-4.8,4.9c-2.3,0-4.8-1.5-4.8-4.9c0-2.4,1.6-4.9,4.8-4.9C253.8,64.7,255.4,67.1,255.4,69.6z"/>
	<path class="st0" d="M282.8,71.1c0,2.1-1.3,3.4-3.3,3.4c-2,0-3.3-1.3-3.3-3.4v-9h-3v9.2c0,4.2,3.2,6.1,6.3,6.1
		c3.1,0,6.3-1.9,6.3-6.1v-9.2h-3V71.1z"/>
	<path class="st0" d="M307.6,62.1h-6.2V77h3v-4.9h3.2c3.2,0,5.3-2,5.3-5.1C312.9,64.1,310.8,62.1,307.6,62.1z M309.8,67.1
		c0,1.5-1,2.3-2.7,2.3h-2.7v-4.5h2.7C308.8,64.9,309.8,65.7,309.8,67.1z"/>
	<path class="st0" d="M195.8,71h3.3c-0.3,1-0.8,1.9-1.6,2.5c-0.8,0.6-1.8,1-2.9,1c-1.3,0-2.4-0.5-3.3-1.4s-1.3-2.1-1.3-3.4
		c0-1.3,0.4-2.5,1.3-3.4s2-1.4,3.3-1.4c1.2,0,2.3,0.4,3.2,1.3l2.1-2.1c-1.4-1.3-3.2-2-5.3-2c-2.2,0-4,0.7-5.5,2.2
		c-1.4,1.4-2.2,3.3-2.2,5.5s0.7,4,2.2,5.5c1.4,1.4,3.3,2.2,5.5,2.2c1,0,2-0.2,2.9-0.5c0.9-0.3,1.7-0.8,2.4-1.5
		c0.7-0.6,1.3-1.5,1.7-2.6s0.6-2.3,0.6-3.6v-0.9h-6.4V71z"/>
</g>
<polygon class="st0" points="177.1,32.3 148.6,0 142.8,0 142.8,50.4 152.3,50.4 152.3,18.1 181,50.5 186.8,50.5 186.8,0 177.2,0 "/>
<polygon class="st0" points="70.4,50.4 93.3,0 82.6,0 67.4,33.8 52.2,0 41.5,0 64.5,50.4 "/>
<path class="st0" d="M294.7,20.7l-8.5,8.5v0.3h14.7c-0.9,3.5-2.7,6.3-5.4,8.4c-2.7,2.2-5.9,3.2-9.6,3.2c-4.4,0-8.1-1.5-11.1-4.6
	c-3-3.1-4.4-6.9-4.4-11.4s1.5-8.3,4.4-11.4s6.6-4.6,11.1-4.6c4.2,0,7.7,1.4,10.7,4.3l7.2-7.2c-4.8-4.5-10.8-6.8-17.9-6.8
	c-7.4,0-13.6,2.4-18.4,7.3c-4.9,4.9-7.3,11-7.3,18.4c0,7.4,2.4,13.6,7.3,18.4c4.9,4.9,11,7.3,18.4,7.3c3.5,0,6.7-0.6,9.8-1.7
	c3-1.1,5.7-2.8,8.1-4.9c2.4-2.2,4.2-5,5.6-8.6c1.4-3.6,2.1-7.7,2.1-12.2v-2.7H294.7z"/>
</svg>
