<svg width="30" height="30" viewBox="0 0 30 30" fill="none" xmlns="http://www.w3.org/2000/svg">
<path d="M6.30293 18.9575C6.30293 20.692 4.88599 22.109 3.15147 22.109C1.41694 22.109 0 20.692 0 18.9575C0 17.223 1.41694 15.806 3.15147 15.806H6.30293V18.9575Z" fill="#623993"/>
<path d="M7.89087 18.9579C7.89087 17.2233 9.30781 15.8064 11.0423 15.8064C12.7769 15.8064 14.1938 17.2233 14.1938 18.9579V26.8487C14.1938 28.5833 12.7769 30.0002 11.0423 30.0002C9.30781 30.0002 7.89087 28.5833 7.89087 26.8487C7.89087 26.8487 7.89087 18.9579 7.89087 18.9579Z" fill="#623993"/>
<path d="M11.0423 6.30293C9.30781 6.30293 7.89087 4.88599 7.89087 3.15147C7.89087 1.41694 9.30781 0 11.0423 0C12.7769 0 14.1938 1.41694 14.1938 3.15147V6.30293H11.0423Z" fill="#623993"/>
<path d="M11.0423 7.89087C12.7769 7.89087 14.1938 9.30781 14.1938 11.0423C14.1938 12.7769 12.7769 14.1938 11.0423 14.1938H3.15147C1.41694 14.1938 0 12.7769 0 11.0423C0 9.30781 1.41694 7.89087 3.15147 7.89087C3.15147 7.89087 11.0423 7.89087 11.0423 7.89087Z" fill="#623993"/>
<path d="M23.6973 11.0423C23.6973 9.30781 25.1142 7.89087 26.8487 7.89087C28.5833 7.89087 30.0002 9.30781 30.0002 11.0423C30.0002 12.7769 28.5833 14.1938 26.8487 14.1938H23.6973V11.0423Z" fill="#623993"/>
<path d="M22.1092 11.0423C22.1092 12.7769 20.6923 14.1938 18.9577 14.1938C17.2232 14.1938 15.8063 12.7769 15.8063 11.0423V3.15147C15.8063 1.41694 17.2232 0 18.9577 0C20.6923 0 22.1092 1.41694 22.1092 3.15147V11.0423Z" fill="#623993"/>
<path d="M18.9579 23.6971C20.6924 23.6971 22.1093 25.1141 22.1093 26.8486C22.1093 28.5831 20.6924 30.0001 18.9579 30.0001C17.2233 30.0001 15.8064 28.5831 15.8064 26.8486V23.6971H18.9579Z" fill="#623993"/>
<path d="M18.9577 22.109C17.2232 22.109 15.8063 20.692 15.8063 18.9575C15.8063 17.223 17.2232 15.806 18.9577 15.806H26.8486C28.5831 15.806 30.0001 17.223 30.0001 18.9575C30.0001 20.692 28.5831 22.109 26.8486 22.109H18.9577Z" fill="#623993"/>
</svg>
