
<svg width="158" height="50" viewBox="0 0 158 50" fill="none" xmlns="http://www.w3.org/2000/svg">
<g clip-path="url(#clip0_1869_3190)">
<path d="M25.1826 8H10.8174C5.4034 8 1 12.4034 1 17.8174V32.1826C1 37.5966 5.4034 42 10.8174 42H25.1826C30.5966 42 35 37.5966 35 32.1826V17.8174C34.9759 12.4034 30.5966 8 25.1826 8ZM31.8478 32.4232C31.8478 36.0085 28.9363 38.9441 25.327 38.9441H10.649C7.06369 38.9441 4.1281 36.0326 4.1281 32.4232V17.7212C4.1281 14.1359 7.03963 11.2003 10.649 11.2003H25.351C28.9363 11.2003 31.8719 14.1118 31.8719 17.7212V32.4232H31.8478Z" fill="white"/>
<path d="M17.9884 16.252C13.1279 16.252 9.18164 20.1982 9.18164 25.0828C9.18164 29.9675 13.1279 33.8896 17.9884 33.8896C22.849 33.8896 26.7952 29.9434 26.7952 25.0828C26.7952 20.2222 22.8731 16.252 17.9884 16.252ZM17.9884 30.7856C14.8363 30.7856 12.2616 28.235 12.2616 25.0587C12.2616 21.9066 14.8122 19.3319 17.9884 19.3319C21.1406 19.3319 23.7153 21.8825 23.7153 25.0587C23.7153 28.235 21.1406 30.7856 17.9884 30.7856Z" fill="white"/>
<path d="M27.1097 17.9617C28.2393 17.9617 29.155 17.046 29.155 15.9164C29.155 14.7868 28.2393 13.8711 27.1097 13.8711C25.9802 13.8711 25.0645 14.7868 25.0645 15.9164C25.0645 17.046 25.9802 17.9617 27.1097 17.9617Z" fill="white"/>
<path fill-rule="evenodd" clip-rule="evenodd" d="M50.3364 12.0431C50.6768 11.9639 51.0172 12.0167 51.3576 12.0958C51.8551 12.2278 52.3787 12.3597 52.7715 12.6764C52.981 12.8348 53.1642 13.0723 53.1381 13.3626C53.1381 18.1655 53.1381 22.942 53.1381 27.745C53.1381 29.3284 53.2166 30.9118 52.9286 32.4688C52.7191 33.7355 52.2216 35.0022 51.3314 35.9258C51.0434 36.2689 50.703 36.5592 50.3102 36.7703C49.9698 36.955 49.6033 37.1134 49.2367 37.087C49.1582 36.9814 49.0796 36.8759 49.0796 36.7439C49.1058 36.3744 49.2367 36.005 49.3676 35.6619C49.7342 34.4744 49.8389 33.2077 49.8651 31.9674C49.8913 26.1352 49.9175 20.2767 49.9437 14.4445C49.9437 14.2862 49.9437 14.1543 49.9175 13.9959C49.708 13.9959 49.5509 14.1806 49.3938 14.339C48.6869 15.0251 48.1108 15.8432 47.7181 16.7405C47.1682 17.8752 46.9064 19.1155 46.8016 20.3822C46.6969 21.2003 46.7755 22.0184 46.9587 22.8101C47.1158 23.4171 47.3777 24.024 47.7704 24.5254C47.9275 24.7366 48.0061 25.0268 47.849 25.2643C47.6395 25.4755 47.2991 25.3699 47.0635 25.2907C46.2256 25.0005 45.5186 24.4199 44.9688 23.7074C44.3142 22.8629 44.0262 21.7809 44 20.7253C44.0524 19.8017 44.3142 18.878 44.6546 18.0072C45.1521 16.7141 45.859 15.5265 46.8016 14.4973C47.4039 13.864 48.0584 13.2834 48.7916 12.8084C49.2891 12.4917 49.7866 12.2014 50.3364 12.0431ZM81.7828 12.2806C82.0447 12.0431 82.4374 12.0695 82.7778 12.1222C83.38 12.2278 83.9561 12.3597 84.5059 12.6236C84.6892 12.7028 84.8201 12.8084 84.951 12.9403C84.8987 14.2598 84.8463 15.5529 84.7678 16.8724C86.0769 16.9252 87.3861 17.0043 88.6953 17.0835C88.931 17.0835 89.219 17.1627 89.2713 17.4266C89.3237 17.8224 89.2713 18.2711 89.0881 18.6141C88.9833 18.7989 88.8262 19.0364 88.5644 19.01C87.3076 19.0364 86.0246 19.0628 84.7678 19.0891C84.6892 20.9364 84.6368 22.7573 84.5845 24.6046C84.5583 26.2672 84.4012 27.9561 84.5845 29.6451C84.663 30.3048 84.7416 30.9645 85.0558 31.5451C85.1867 31.809 85.4224 32.0201 85.7104 32.0465C86.0769 32.0729 86.4697 31.9146 86.7315 31.6771C87.1767 31.2812 87.4909 30.7798 87.7527 30.252C88.0669 29.6451 88.2764 29.0117 88.4858 28.352C88.5644 28.0617 88.512 27.7714 88.5382 27.4811C88.5644 25.9505 88.8 24.3935 89.3237 22.9684C89.7165 21.9128 90.2663 20.8836 91.1566 20.1711C92.1253 19.353 93.5131 19.0891 94.6913 19.5905C95.4507 19.8808 96.0529 20.4878 96.4194 21.2003C96.4718 20.8573 96.3933 20.4878 96.5504 20.1711C96.7598 19.8281 97.2049 19.8017 97.5715 19.8544C98.0428 19.9072 98.5403 20.0392 98.9592 20.2767C99.2211 20.435 99.4829 20.6725 99.4829 20.9892C99.4044 23.7865 99.2734 26.6102 99.3782 29.4075C99.4044 30.0145 99.4829 30.6215 99.6138 31.2284C99.7186 31.6507 99.8495 32.1257 100.216 32.416C100.556 32.6799 101.028 32.6007 101.342 32.3368C101.839 31.941 102.154 31.334 102.389 30.7534C102.468 30.5951 102.546 30.4104 102.52 30.2256C102.337 28.5367 102.285 26.8213 102.573 25.1588C102.756 24.024 103.096 22.9157 103.672 21.9392C104.248 20.9364 105.112 20.0392 106.16 19.5378C106.369 19.4586 106.579 19.353 106.788 19.3266C107.835 19.3266 108.909 19.6697 109.642 20.435C109.825 20.6461 109.983 20.8836 110.14 21.1212C110.218 20.8045 110.14 20.4614 110.244 20.1711C110.401 19.8281 110.873 19.8017 111.213 19.8544C111.789 19.96 112.365 20.0656 112.863 20.3559C113.177 20.5406 113.177 20.9364 113.151 21.2531C113.125 24.4199 113.072 27.5603 113.046 30.727C113.753 29.7242 114.408 28.6686 114.957 27.5603C115.638 26.2144 116.214 24.8157 116.502 23.3115C116.109 22.9684 115.743 22.5198 115.638 21.992C115.533 21.5698 115.638 21.1212 115.743 20.6989C115.926 20.0656 116.397 19.485 117.026 19.3003C117.523 19.1683 118.073 19.1419 118.545 19.4058C118.885 19.5905 119.094 19.9864 119.147 20.3559C119.199 20.7517 119.147 21.1475 119.068 21.517C119.906 21.3851 120.744 21.2531 121.582 21.042C122.158 20.91 122.76 20.8045 123.31 20.9892C123.703 21.1212 124.017 21.4906 124.095 21.8865C124.2 22.3087 124.226 22.7837 124.069 23.2059C123.86 23.7601 123.807 24.3671 123.676 24.9477C123.415 26.5047 123.074 28.0881 123.31 29.6451C123.415 30.3576 123.546 31.0437 123.834 31.7035C123.991 32.0465 124.226 32.4424 124.619 32.5479C125.012 32.6535 125.405 32.4424 125.693 32.2049C126.19 31.7562 126.504 31.1493 126.661 30.4895C126.321 28.827 126.242 27.1116 126.504 25.4491C126.688 24.2088 127.054 22.9684 127.656 21.8337C128.128 20.9892 128.782 20.2239 129.673 19.7753C130.641 19.3003 131.846 19.3003 132.815 19.8281C133.417 20.1447 133.862 20.6461 134.202 21.2267C134.255 20.8836 134.176 20.5142 134.359 20.1975C134.621 19.8544 135.119 19.8808 135.511 19.9336C136.087 20.0392 136.69 20.1711 137.082 20.6197C137.344 20.91 137.213 21.3059 137.213 21.6489C137.161 23.4962 137.082 25.3435 137.109 27.1644C137.109 28.5631 137.056 30.0145 137.449 31.3868C137.554 31.7298 137.685 32.0993 137.999 32.3368C138.339 32.5743 138.811 32.5215 139.151 32.284C139.596 31.941 139.884 31.4659 140.146 30.9645C140.355 30.5159 140.591 30.0937 140.696 29.6187C140.696 26.5311 140.722 23.4171 140.722 20.3295C140.696 20.0656 140.801 19.7489 141.062 19.6433C141.246 19.5378 141.481 19.6169 141.665 19.6433C142.214 19.7489 142.79 19.7489 143.288 20.0128C143.471 20.1183 143.681 20.2767 143.655 20.5142C143.655 22.0448 143.655 23.5754 143.655 25.106C143.655 25.2907 143.655 25.4491 143.681 25.6338C144.126 24.2351 144.597 22.8365 145.147 21.4906C145.356 20.9892 145.566 20.4878 145.854 20.0128C146.063 19.6433 146.535 19.5642 146.927 19.5905C147.765 19.6433 148.629 20.0128 149.075 20.7517C149.232 21.0156 149.31 21.3323 149.31 21.6489C149.284 23.2323 149.389 24.8421 149.493 26.4255C149.52 26.9269 149.546 27.4283 149.624 27.9033C149.677 27.8769 149.703 27.8242 149.729 27.745C149.886 26.5574 150.174 25.4227 150.515 24.2879C150.881 23.0212 151.3 21.7809 151.824 20.567C151.955 20.2767 152.086 19.9336 152.4 19.7489C152.845 19.5114 153.369 19.5905 153.84 19.7225C154.364 19.9072 154.913 20.092 155.332 20.4614C155.647 20.7253 155.882 21.0948 155.908 21.517C155.778 23.9712 155.673 26.4519 155.856 28.9325C155.908 29.6187 155.987 30.3048 156.17 30.9645C156.275 31.334 156.406 31.7035 156.642 32.0201C156.851 32.3104 157.27 32.4688 157.637 32.3368C157.951 32.2049 158.16 31.9146 158.317 31.6507C158.684 30.9645 158.789 30.1728 158.998 29.4339C159.05 29.2228 159.155 28.9589 159.391 28.8797C159.548 28.7742 159.731 28.9061 159.862 29.0117C160.045 29.17 159.993 29.4339 159.993 29.6451C159.941 30.8326 159.757 32.0729 159.077 33.0757C158.527 33.8938 157.532 34.4216 156.537 34.316C155.62 34.2633 154.783 33.7355 154.285 32.9702C153.657 32.0201 153.421 30.8854 153.238 29.777C152.95 27.5603 153.028 25.3171 153.081 23.1004C153.002 23.1532 152.924 23.2587 152.897 23.3379C152.269 24.5782 151.85 25.9241 151.536 27.27C151.117 29.0117 150.829 30.8062 150.776 32.6007C150.776 32.8382 150.593 32.9966 150.384 33.0493C149.886 33.2605 149.31 33.2868 148.839 33.0493C148.341 32.8118 147.975 32.3632 147.765 31.8618C147.53 31.3604 147.425 30.8062 147.346 30.252C147.058 27.9561 146.954 25.6602 146.849 23.3643C146.875 23.2059 146.666 23.3115 146.587 23.3115C145.461 25.2643 144.911 27.4811 144.623 29.6978C144.44 30.9909 144.388 32.284 144.361 33.6035C144.361 33.841 144.231 34.0785 144.021 34.1841C143.628 34.3952 143.183 34.3952 142.764 34.3688C142.267 34.316 141.717 34.2633 141.298 33.973C141.115 33.841 140.984 33.6563 140.984 33.4188C140.958 32.9966 140.958 32.5743 140.905 32.1521C140.67 32.4951 140.486 32.8646 140.198 33.1813C139.753 33.7091 139.177 34.1577 138.523 34.316C137.58 34.5272 136.506 34.2105 135.852 33.498C135.302 32.9174 135.014 32.1257 134.883 31.3604C134.412 32.416 133.626 33.3396 132.605 33.8938C132.108 34.1577 131.558 34.316 130.982 34.3688C130.353 34.448 129.725 34.3688 129.149 34.0785C128.337 33.6563 127.709 32.891 127.342 32.0729C126.897 33.0493 126.164 33.9994 125.09 34.2897C124.017 34.5799 122.891 34.1577 122.132 33.3924C121.163 32.4424 120.665 31.0965 120.508 29.7506C120.43 29.0909 120.456 28.4575 120.508 27.7978C120.613 26.3463 120.77 24.8949 121.137 23.4698C121.137 23.3907 121.137 23.3115 121.137 23.2323C120.351 23.2059 119.592 23.2323 118.806 23.2323C118.414 24.5518 117.864 25.8185 117.209 27.0325C116.109 29.1173 114.748 31.0701 113.255 32.8646C113.282 34.6063 113.334 36.3217 113.255 38.0634C113.177 39.4357 112.967 40.8343 112.391 42.0746C111.946 43.0247 111.292 43.8691 110.349 44.3705C109.668 44.74 108.883 44.9511 108.097 45.0039C107.129 44.9247 106.134 44.6872 105.374 44.0539C104.851 43.6052 104.484 42.9719 104.327 42.3121C104.222 41.7316 104.196 41.0982 104.379 40.5176C104.72 39.4357 105.4 38.512 106.16 37.6675C106.919 36.8231 107.783 36.0842 108.595 35.2925C109.249 34.6855 109.904 34.0521 110.559 33.4452C110.559 32.9702 110.506 32.4952 110.48 31.9937C110.166 32.3896 109.904 32.8118 109.511 33.1549C108.569 34.0785 107.207 34.5536 105.872 34.3952C104.955 34.2369 104.222 33.6035 103.672 32.8646C103.463 32.6007 103.28 32.3104 103.122 32.0201C102.651 32.9966 101.944 33.973 100.871 34.316C99.7971 34.6063 98.5927 34.1841 97.9119 33.3396C97.4406 32.759 97.1526 32.0729 97.0478 31.334C96.6027 32.3104 95.9219 33.1813 95.0055 33.7355C94.4295 34.1049 93.7487 34.316 93.0418 34.3688C92.2824 34.448 91.5231 34.2897 90.8947 33.841C89.7688 33.0493 89.219 31.7035 88.9048 30.4367C88.7215 31.0173 88.4596 31.5451 88.1716 32.0729C87.8836 32.5479 87.5694 32.9966 87.1767 33.3924C86.7053 33.841 86.1293 34.2105 85.4747 34.316C84.7154 34.4216 83.9299 34.1841 83.3539 33.6827C82.8825 33.2868 82.5422 32.759 82.2803 32.1785C81.809 31.1493 81.6257 30.0145 81.521 28.8797C80.9188 30.1992 80.238 31.4923 79.1907 32.4951C78.4052 33.3132 77.4102 33.9202 76.2843 34.2105C75.4202 34.448 74.5038 34.4216 73.6136 34.3424C72.8543 34.2633 72.0688 34.1049 71.388 33.7355C71.0738 33.5507 70.7334 33.2605 70.6287 32.891C70.5763 32.4688 70.8119 32.0729 71.0476 31.7562C71.2832 31.4396 71.5189 31.1229 71.8855 30.9909C72.2259 30.8854 72.5139 31.1493 72.8019 31.334C73.2208 31.7035 73.6921 32.0201 74.242 32.1521C74.7657 32.284 75.4202 32.1257 75.7344 31.6507C76.0225 31.2021 76.101 30.6743 76.1272 30.1465C76.1272 29.17 75.4988 28.3256 74.8442 27.6658C74.2158 27.0589 73.5874 26.5047 72.959 25.9241C72.0426 27.4811 71.0738 28.9853 70.1574 30.5423C69.6075 31.5451 68.9529 32.4688 68.115 33.2341C67.5128 33.7882 66.7797 34.2369 65.968 34.3688C65.4181 34.448 64.8683 34.1841 64.5279 33.7355C64.0828 33.1813 63.8995 32.4688 63.7948 31.7562C63.6377 30.5159 63.69 29.2492 63.7162 27.9825C63.7424 26.3991 63.8209 24.7893 63.8733 23.2059C63.8733 22.8629 63.9257 22.5198 63.8995 22.1767C63.7948 22.2031 63.6638 22.2031 63.6115 22.3087C62.0928 24.024 61.1502 26.1616 60.4171 28.3256C59.7887 30.1992 59.3436 32.1521 59.0555 34.1049C58.8199 34.316 58.4795 34.3688 58.1915 34.316C57.8249 34.2633 57.4322 34.316 57.0656 34.2369C56.7514 34.1577 56.5157 33.8674 56.3848 33.5507C56.123 32.9174 56.0968 32.2313 56.0968 31.5715C56.123 27.7978 56.1492 24.024 56.1753 20.2503C56.1753 20.0656 56.2277 19.8281 56.411 19.7753C56.8037 19.6433 57.1965 19.7489 57.5893 19.8281C58.0344 19.9336 58.5057 20.0656 58.8199 20.3822C58.977 20.5406 58.9246 20.7781 58.9246 20.9892C58.9246 23.074 58.8984 25.1852 58.8984 27.27C59.5792 25.4227 60.26 23.5226 61.3073 21.8601C61.543 21.517 61.7786 21.1475 62.0666 20.8573C62.5641 20.2767 63.2711 19.7489 64.0566 19.7225C64.6588 19.6961 65.2087 19.9864 65.7323 20.2503C66.2298 20.4878 66.7011 20.8573 66.8844 21.3851C67.0153 21.7017 66.963 22.0448 66.963 22.3615C66.9106 24.156 66.8582 25.9505 66.8059 27.7714C66.8059 28.5103 66.7273 29.2492 66.7797 29.9617C66.8059 30.3048 66.832 30.6743 66.963 30.9909C67.0415 31.1757 67.1462 31.3868 67.3557 31.4132C67.5652 31.4396 67.7223 31.2812 67.8794 31.1757C68.2198 30.8854 68.4816 30.5159 68.7434 30.1465C69.5028 29.0909 70.1312 27.9825 70.7858 26.8741C71.1523 26.188 71.5451 25.5019 71.9117 24.7893C71.7807 24.5782 71.5974 24.4199 71.4927 24.2088C71.0738 23.5226 70.969 22.6782 71.1785 21.9392C71.388 21.2003 71.8331 20.5406 72.4353 20.0656C72.8543 19.7489 73.3517 19.5642 73.8754 19.4586C74.3729 19.3266 74.9228 19.4058 75.3417 19.6697C75.6297 19.8544 75.7868 20.1975 75.813 20.5406C75.8392 21.2003 75.6035 21.8073 75.2893 22.3879C75.0013 22.942 74.6086 23.4435 74.2158 23.9185C75.4988 24.8685 76.8342 25.7658 77.9339 26.9005C78.5099 27.5075 78.9812 28.2728 79.0859 29.1436C79.1645 29.5923 79.0859 30.0409 79.0336 30.4631C80.238 29.4075 81.1806 27.9561 81.4163 26.3463C81.4425 23.8921 81.4425 21.4378 81.4686 18.9572C80.3428 18.9308 79.243 18.9308 78.1171 18.9044C77.9077 18.7725 77.8553 18.4822 77.8291 18.2447C77.8291 17.6905 77.9862 17.0835 78.379 16.6613C78.4313 16.5821 78.5623 16.6085 78.6408 16.5821C79.6358 16.5821 80.6308 16.6085 81.6257 16.6349C81.6781 15.5001 81.7043 14.3654 81.7305 13.2306C81.5734 12.9139 81.5472 12.5445 81.7828 12.2806ZM93.9582 21.7809C93.3036 21.9128 92.8061 22.4406 92.5181 23.0212C92.0992 23.7865 91.9159 24.6574 91.785 25.5019C91.6279 26.6102 91.5755 27.745 91.654 28.8797C91.7064 29.7506 91.8373 30.6479 92.2301 31.4132C92.4395 31.8354 92.7799 32.2313 93.2512 32.3896C93.5654 32.5215 93.9058 32.4951 94.1938 32.3368C94.7961 32.0201 95.1888 31.4659 95.4768 30.8854C96.0005 29.8034 96.2362 28.6159 96.3409 27.4283C96.4456 26.188 96.4718 24.9477 96.1838 23.7337C96.0267 23.1532 95.791 22.5726 95.3459 22.1767C94.9793 21.8337 94.4295 21.6489 93.9582 21.7809ZM107.835 21.8073C107.05 22.0184 106.5 22.7045 106.16 23.4171C105.636 24.5254 105.453 25.713 105.348 26.9269C105.296 28.2728 105.269 29.6451 105.688 30.9645C105.898 31.5715 106.238 32.2049 106.867 32.4951C107.259 32.6799 107.705 32.6271 108.071 32.416C108.385 32.2313 108.647 31.9674 108.857 31.6507C109.354 30.9909 109.642 30.1992 109.825 29.3812C110.113 28.1936 110.218 26.9533 110.192 25.7394C110.192 24.8949 110.113 24.0504 109.852 23.2587C109.694 22.7837 109.433 22.2823 108.988 21.992C108.647 21.7545 108.202 21.7017 107.835 21.8073ZM131.924 21.9128C131.244 22.0184 130.72 22.5462 130.406 23.1532C129.856 24.2088 129.673 25.4227 129.568 26.6102C129.489 27.9297 129.437 29.302 129.751 30.5951C129.908 31.2284 130.17 31.8882 130.694 32.3104C131.034 32.5743 131.505 32.7327 131.924 32.5743C132.474 32.3896 132.841 31.9146 133.155 31.4396C133.862 30.2784 134.124 28.9061 134.255 27.5603C134.359 26.3463 134.386 25.0796 134.071 23.8921C133.914 23.3115 133.679 22.7045 133.207 22.3087C132.867 21.992 132.396 21.8337 131.924 21.9128ZM109.485 36.6647C108.281 37.8787 107.155 39.2245 106.474 40.8079C106.238 41.3621 106.107 42.0219 106.264 42.6288C106.369 43.1038 106.762 43.4997 107.233 43.6316C107.809 43.79 108.49 43.79 109.014 43.4469C109.485 43.1302 109.799 42.6288 109.983 42.0746C110.349 41.0454 110.401 39.9635 110.454 38.8815C110.48 37.8259 110.506 36.7703 110.506 35.7147C110.14 35.9786 109.825 36.3481 109.485 36.6647Z" fill="white"/>
</g>
<defs>
<clipPath id="clip0_1869_3190">
<rect width="158" height="50" fill="white"/>
</clipPath>
</defs>
</svg>
