<svg width="169" height="50" viewBox="0 0 169 50" fill="none" xmlns="http://www.w3.org/2000/svg">
<path d="M92.8702 16.7935C93.4867 16.7967 94.0801 16.5616 94.5241 16.1382C94.9664 15.7164 95.2229 15.1391 95.2381 14.5313C95.2308 13.9151 94.9789 13.3265 94.5369 12.8926C94.093 12.4568 93.4952 12.2095 92.8702 12.2031C92.2539 12.2173 91.6675 12.4691 91.236 12.905C90.8064 13.3392 90.5669 13.9235 90.5695 14.5313C90.5748 15.1306 90.819 15.7036 91.2489 16.1255C91.6805 16.5492 92.2624 16.7888 92.8702 16.7935ZM108.961 18.9687H114.672V19.4143C114.355 19.4691 114.049 19.573 113.766 19.7222C113.244 19.9624 112.199 21.1265 111.397 23.0773C110.04 26.4671 108.614 30.4711 107.117 35.06L106.56 36.8001C106.315 37.5866 106.106 38.1 106.002 38.4098C105.897 38.7195 105.757 39.1963 105.515 39.7775C105.377 40.2147 105.199 40.6387 104.984 41.0444C104.704 41.5577 104.182 42.6106 103.765 42.9272C103.103 43.4754 102.128 44.0913 100.91 43.9887C98.5423 43.9887 96.7669 42.2486 96.7319 40.19C96.7319 38.7856 97.6378 37.8616 98.9949 37.8616C99.9702 37.8616 100.839 38.3837 100.839 39.4695C100.839 40.2578 100.04 41.0791 100.04 41.4899C100.04 42.5513 100.666 43.0559 101.885 43.0559C102.858 43.0559 103.655 42.4399 104.251 41.2078C105.053 39.8036 105.122 38.2637 104.46 36.5512L99.4482 23.5087C98.2978 20.4967 97.4276 19.5065 96.3493 19.4004V18.9546H104.251V19.4C103.312 19.5028 102.825 20.0509 102.825 21.0427C102.825 21.7614 103.103 22.8577 103.625 24.262L104.564 26.7942C105.644 29.533 106.511 31.9292 106.968 33.4363C107.976 30.3213 108.915 27.5823 109.823 25.1862C110.485 23.4059 110.798 22.1392 110.798 21.3856C110.798 20.0509 110.066 19.435 108.952 19.435L108.961 18.9687ZM53.9851 35.6412C52.9765 35.4672 52.1058 34.5796 52.1058 32.6968V10L46.361 11.2321V11.7125C47.3362 11.6097 48.3077 12.464 48.3077 14.2791V32.6968C48.3077 34.477 47.3326 35.5037 46.361 35.6412C46.2698 35.6569 46.1774 35.668 46.0849 35.6741C45.5877 35.7078 45.0897 35.6212 44.6338 35.4219C43.8622 35.0912 43.2181 34.5013 42.6728 33.6209L40.0184 29.4445C39.4585 28.5635 38.6263 27.8851 37.6457 27.5102C36.6627 27.1338 35.5836 27.0798 34.5674 27.3562L37.5618 24.1041C39.8235 21.64 41.9137 20.0652 43.8975 19.4145V18.9685H37.3106V19.4141C39.0165 20.0648 38.9121 21.5023 36.9567 23.7645L32.7447 28.5897V10L27 11.2321V11.7125C27.9751 11.7125 28.9466 12.6694 28.9466 14.3469V32.6968C28.9466 34.7172 28.0071 35.5037 27 35.6412V36.0867H34.6311V35.6412C33.3782 35.4672 32.7517 34.5118 32.7517 32.6968V29.3087L34.3869 27.5286L38.3477 33.9289C39.2874 35.4706 40.1581 36.0867 41.5509 36.0867H54.8063V35.7386C54.8063 35.7386 54.4276 35.7125 53.9851 35.6412ZM69.7999 33.4764V25.8197C69.7236 20.8134 67.5893 18.5338 62.7013 18.5338C61.1407 18.5218 59.6211 19.0277 58.3849 19.9709C57.0966 20.9298 56.47 22.0261 56.47 23.293C56.47 24.5251 57.1656 25.4491 58.3141 25.4491C59.5336 25.4491 60.4042 24.7651 60.4042 23.8064C60.4042 23.0876 59.9157 22.0941 59.9157 21.4101C59.9157 20.1765 60.8573 19.115 62.4925 19.115C64.5827 19.115 66.0781 20.6568 66.0781 24.0795V26.133L64.3383 26.5436C63.4323 26.7175 62.6678 26.8917 62.0748 27.0656C61.482 27.2396 60.7175 27.4764 59.8113 27.8174C58.0008 28.5031 57.0275 29.1538 56.1906 30.386C55.7807 30.9815 55.5624 31.6857 55.564 32.4062C55.564 35.2462 57.5831 36.5479 60.4042 36.5479C62.6322 36.5479 65.0056 35.3836 66.0781 33.1928C66.0935 33.8838 66.2618 34.5632 66.5719 35.1835C67.7522 37.5327 71.6617 36.144 71.6617 36.144V35.6987C69.9503 35.9614 69.8087 33.9601 69.7999 33.4764ZM66.0833 31.1063C66.0833 32.2356 65.6656 33.1597 64.8304 33.8105C64.0304 34.4614 63.1951 34.8042 62.3244 34.8042C60.6183 34.8042 59.5034 33.7079 59.5034 31.6874C59.5034 30.7305 60.0343 29.8394 60.4786 29.3262C60.8306 28.9717 61.2435 28.6817 61.6979 28.4699C62.289 28.1619 62.5827 28.0036 62.9862 27.8191L64.5791 27.238C65.3789 26.93 65.8657 26.7594 66.0745 26.6568L66.0833 31.1063ZM143 18.9687H129.46V10H143L140.158 14.4844L143 18.9687ZM115.477 33.9079C114.644 33.0654 113.987 32.0683 113.544 30.9739C113.101 29.8795 112.88 28.7093 112.895 27.5303C112.877 26.3569 113.095 25.1917 113.538 24.1033C113.983 23.013 114.642 22.0211 115.477 21.1856C117.185 19.4038 119.277 18.5111 121.719 18.5111C124.124 18.5111 126.218 19.4038 127.926 21.1856C128.772 22.0144 129.441 23.0044 129.891 24.0958C130.341 25.1852 130.562 26.3537 130.541 27.5303C130.558 28.7115 130.336 29.884 129.887 30.9784C129.437 32.0747 128.77 33.0708 127.926 33.9079C126.218 35.648 124.124 36.5479 121.719 36.5479C119.277 36.5479 117.185 35.6567 115.477 33.9079ZM124.857 21.4711C124.168 20.1468 123.264 19.3707 122.202 19.1618C120.049 18.7356 118.144 20.9124 117.435 24.3737C117.132 25.9263 117.058 27.5141 117.217 29.0877C117.373 30.6624 117.818 32.1957 118.53 33.6122C119.22 34.9382 120.123 35.7125 121.185 35.9213C123.338 36.3476 125.297 34.0785 126.012 30.5824C126.605 27.6608 126.304 24.1023 124.848 21.4693L124.857 21.4711Z" fill="white"/>
<path d="M95.1426 32.632V19H82.7644V19.4097C84.4178 19.6482 85.2043 20.8544 84.4537 22.8103C80.5855 32.9742 80.8321 32.518 80.5855 33.3336C80.3389 32.5508 79.7757 30.6277 78.8624 28.2153C77.9489 25.8031 77.3502 24.2031 77.1036 23.4894C76.1543 20.6675 76.4707 19.6135 78.0186 19.4442V19.0018H70V19.4442C71.1959 19.6827 72.2505 21.0079 73.13 23.3873L74.3614 26.4805C75.7145 29.8224 77.3038 34.4291 77.8345 36H80.4996C81.3577 33.5807 84.8003 23.9266 85.2615 22.9451C85.7584 21.827 86.3214 20.9802 86.9508 20.3945C87.255 20.0788 87.6246 19.8298 88.0353 19.6639C88.4467 19.4975 88.8898 19.4179 89.3352 19.4303C89.3352 19.4303 91.2674 19.4303 91.2674 21.2326V32.632C91.2674 34.5329 90.3183 35.4194 89.3333 35.5558V35.9982H97V35.5558C95.9865 35.4194 95.1426 34.5363 95.1426 32.632Z" fill="white"/>
</svg>
