
<svg width="126" height="50" viewBox="0 0 126 50" fill="none" xmlns="http://www.w3.org/2000/svg">
<g clip-path="url(#clip0_1869_3181)">
<path d="M50 15H54.6084L62.4525 28.7323L70.2965 15H74.8069V37.5941H71.0564V20.2743L64.1929 32.2485H60.663L53.7995 20.2743V37.5941H50.049V15H50Z" fill="white"/>
<path d="M86.9416 38C85.2012 38 83.6569 37.6199 82.3577 36.8834C81.034 36.1469 80.0045 35.1015 79.2691 33.7711C78.5337 32.4406 78.166 30.9438 78.166 29.2332C78.166 27.4989 78.5337 25.9784 79.2446 24.6241C79.9554 23.2937 80.9605 22.2483 82.2596 21.4881C83.5343 20.7278 85.0051 20.3477 86.6719 20.3477C88.3143 20.3477 89.736 20.7278 90.9372 21.4881C92.1383 22.2483 93.0452 23.3174 93.6826 24.6717C94.3199 26.0259 94.6386 27.6414 94.6386 29.4708V30.4687H81.8674C82.1126 31.8466 82.6764 32.9395 83.5833 33.7235C84.4903 34.5076 85.6669 34.9115 87.0641 34.9115C88.1917 34.9115 89.1477 34.7451 89.9566 34.4363C90.7656 34.1037 91.5255 33.6285 92.2363 32.9633L94.2219 35.3391C92.2608 37.121 89.8341 38 86.9416 38ZM89.687 24.6004C88.9026 23.8164 87.8731 23.4362 86.5984 23.4362C85.3482 23.4362 84.3187 23.8401 83.4853 24.6241C82.6518 25.4082 82.1126 26.501 81.892 27.8315H91.0352C90.9372 26.4535 90.4714 25.3844 89.687 24.6004Z" fill="white"/>
<path d="M99.1965 23.7435H95.7402V20.7737H99.1965V15.832H102.824V20.7737H108.095V23.7435H102.824V31.2987C102.824 32.5578 103.045 33.4607 103.486 33.9833C103.927 34.5298 104.687 34.7911 105.766 34.7911C106.232 34.7911 106.648 34.7674 106.992 34.7436C107.335 34.6961 107.702 34.6486 108.095 34.601V37.5471C107.678 37.6659 107.212 37.7609 106.697 37.8322C106.183 37.9034 105.643 37.951 105.08 37.951C101.158 37.951 99.1965 35.884 99.1965 31.7263V23.7435Z" fill="white"/>
<path d="M127.001 37.5961H123.446V35.2441C122.809 36.1231 122 36.8121 121.044 37.2873C120.064 37.7624 118.961 38 117.71 38C116.191 38 114.818 37.6199 113.641 36.8596C112.465 36.0994 111.533 35.054 110.847 33.7235C110.16 32.3931 109.842 30.8726 109.842 29.162C109.842 27.4514 110.185 25.9308 110.871 24.6004C111.558 23.2699 112.514 22.2483 113.715 21.4881C114.94 20.7278 116.313 20.3477 117.906 20.3477C119.083 20.3477 120.162 20.5615 121.093 21.0129C122.025 21.4643 122.809 22.082 123.446 22.9135V20.7515H127.001V37.5961ZM123.373 26.6436C122.981 25.6933 122.368 24.933 121.534 24.3866C120.701 23.8401 119.72 23.555 118.642 23.555C117.098 23.555 115.847 24.0539 114.94 25.0755C114.009 26.0971 113.568 27.4514 113.568 29.162C113.568 30.8963 114.009 32.2743 114.891 33.2721C115.774 34.2937 116.975 34.7927 118.495 34.7927C119.622 34.7927 120.603 34.5076 121.485 33.9611C122.368 33.3909 123.005 32.6544 123.373 31.7041V26.6436V26.6436Z" fill="white"/>
<path d="M26.5515 14C23.5276 14 21.1429 16.232 19.004 19.064C16.0538 15.392 13.5708 14 10.6206 14C4.62193 14 0 21.656 0 29.744C0 34.808 2.50764 38 6.71163 38C9.73555 38 11.9236 36.608 15.7834 30.008C15.7834 30.008 17.406 27.224 18.5123 25.304C18.9056 25.928 19.299 26.576 19.7415 27.296L21.5608 30.272C25.0764 36.032 27.0432 38 30.6326 38C34.7382 38 37 34.76 37 29.6C37 21.128 32.2797 14 26.5515 14ZM12.8332 28.208C9.68638 33.008 8.60465 34.088 6.85914 34.088C5.06445 34.088 3.98272 32.552 3.98272 29.792C3.98272 23.912 6.98206 17.912 10.5714 17.912C12.5136 17.912 14.1362 19.016 16.6193 22.472C14.2591 26 12.8332 28.208 12.8332 28.208ZM24.6831 27.608L22.495 24.08C21.905 23.144 21.3395 22.28 20.7987 21.512C22.7654 18.56 24.3635 17.096 26.2811 17.096C30.2638 17.096 33.4598 22.832 33.4598 29.864C33.4598 32.552 32.5502 34.112 30.7063 34.112C28.9116 34.088 28.0757 32.936 24.6831 27.608Z" fill="white"/>
</g>
<defs>
<clipPath id="clip0_1869_3181">
<rect width="126" height="50" fill="white"/>
</clipPath>
</defs>
</svg>
