
<svg width="196" height="50" viewBox="0 0 196 50" fill="none" xmlns="http://www.w3.org/2000/svg">
<path fill-rule="evenodd" clip-rule="evenodd" d="M42.0001 24.97C42.0001 34.9 33.9601 42.94 24.0301 42.94C14.1001 42.94 6.06006 34.9 6.06006 24.97C6.06006 15.04 14.1001 7 24.0301 7C33.9601 7 42.0001 15.04 42.0001 24.97ZM16.8601 32.08H25.7701C25.9201 32.08 25.9801 31.9 25.9201 31.78L18.7201 22.87C18.6001 22.75 18.4501 22.81 18.4201 22.93L16.6801 31.84C16.6501 31.99 16.7401 32.08 16.8601 32.08ZM16.6801 18.64H25.5901C25.7101 18.64 25.8001 18.76 25.7701 18.85L24.0301 27.76C24.0001 27.91 23.8201 27.94 23.7301 27.82L16.5301 18.88C16.4701 18.79 16.5301 18.64 16.6801 18.64ZM26.4901 18.76C26.5201 18.7 26.5801 18.61 26.6701 18.61H33.0901C33.2101 18.61 33.3001 18.73 33.2701 18.82L32.0701 24.61C32.0401 24.7 31.9801 24.76 31.8901 24.76H31.7101C28.5601 24.76 26.0401 21.85 26.4901 18.76ZM55.2601 17.38H61.6801C61.9801 17.38 62.1901 17.56 62.1001 17.89L61.7401 19.96C63.0001 18.13 64.8301 17.02 66.7201 17.02C67.6501 17.02 68.6401 17.38 69.1801 17.89C69.4801 18.19 69.4801 18.37 69.2701 18.67L67.4101 21.31C67.1701 21.64 67.0201 21.61 66.6301 21.43C66.2701 21.28 65.7901 21.13 65.3101 21.13C63.0901 21.13 61.2001 22.6 60.3301 27.04L59.0401 33.73C58.9501 34.18 58.6201 34.27 58.4401 34.27H55.0501C54.7801 34.27 54.5401 34.03 54.6301 33.73L57.1501 20.86L55.0201 17.86C54.8401 17.62 54.9601 17.38 55.2601 17.38ZM67.5301 25.69C68.4001 20.47 72.2401 17.02 77.2201 17.02C82.2901 17.02 84.69 21.07 83.97 25.45C83.79 26.59 83.4001 27.49 82.4701 27.49H71.6701C71.7601 29.95 73.4701 31.12 75.7501 31.12C77.2501 31.12 78.6601 30.55 79.7101 29.86C79.9801 29.65 80.2801 29.56 80.4601 29.86L81.6901 31.78C81.9001 32.08 81.7801 32.29 81.4801 32.56C79.8901 34.03 77.2801 34.69 74.9101 34.69C69.6001 34.69 66.7201 30.76 67.5301 25.69ZM80.1001 24.55C80.2501 21.91 78.4501 20.8 76.7401 20.8C74.4601 20.8 72.7201 22.33 72.0301 24.55H80.1001ZM100.11 33.85L103.98 14.11L102.09 11.59C102 11.41 102.12 11.2 102.36 11.2H108.3C108.63 11.2 108.81 11.41 108.72 11.71L106.98 20.41C108.3 18.4 110.31 17.05 112.65 17.05C116.4 17.05 118.53 20.26 117.72 24.19L115.8 33.76C115.74 34.12 115.44 34.3 115.2 34.3H111.69C111.36 34.3 111.18 34.09 111.24 33.76L112.98 25.12C113.43 22.78 112.8 21.34 111.39 21.34C108.72 21.34 106.62 24.34 105.72 28.57L104.58 33.88C104.55 34.09 104.37 34.27 104.13 34.27H100.44C100.23 34.24 100.08 34.06 100.11 33.85ZM118.92 25.87C119.79 20.29 123.72 16.99 128.31 16.99C130.74 16.99 132.63 18.1 133.38 19.93L133.77 17.89C133.83 17.53 134.1 17.35 134.4 17.35H137.64C138 17.35 138.15 17.59 138.06 17.89L134.97 33.73C134.91 34.03 134.7 34.24 134.34 34.24H131.07C130.77 34.24 130.62 34.06 130.68 33.73L130.98 32.08C129.45 33.82 127.56 34.69 125.49 34.69C120.78 34.72 118.14 30.82 118.92 25.87ZM126.81 30.67C129.51 30.67 131.52 28.39 131.91 25.75C132.3 23.08 130.86 21.07 128.37 21.07C125.7 21.07 123.78 23.23 123.33 25.78C122.91 28.36 124.2 30.67 126.81 30.67ZM137.07 33.7L140.22 17.8C140.28 17.53 140.43 17.38 140.61 17.38H144.15C144.45 17.38 144.66 17.56 144.57 17.89L144.21 19.96C145.47 18.13 147.3 17.02 149.16 17.02C150.09 17.02 151.11 17.38 151.62 17.89C151.92 18.19 151.92 18.37 151.71 18.67L149.85 21.31C149.61 21.64 149.43 21.61 149.07 21.43C148.71 21.28 148.23 21.13 147.72 21.13C145.5 21.13 143.61 22.6 142.77 27.04L141.48 33.73C141.39 34.18 141.03 34.27 140.88 34.27H137.49C137.25 34.24 137.01 34 137.07 33.7ZM148.71 39.07C148.5 38.92 148.5 38.65 148.65 38.41L150.21 35.95C150.39 35.68 150.63 35.62 150.84 35.77C152.37 36.73 153.87 37.33 155.7 37.33C158.91 37.33 161.58 36.04 162.51 31.72C160.74 33.37 159.12 34.18 156.63 34.18C151.8 34.18 149.28 30.13 150.06 25.57C150.96 20.44 154.8 16.96 159.63 16.96C162.3 16.96 164.13 18.46 164.7 19.69L165.09 17.86C165.15 17.5 165.39 17.32 165.66 17.32H168.93C169.26 17.32 169.44 17.53 169.38 17.86L166.65 31.81C165.45 37.87 161.25 41.05 155.55 41.05C153.15 41.08 150.45 40.48 148.71 39.07ZM157.92 30.31C160.62 30.31 162.63 28.15 163.02 25.57C163.41 22.99 162 21.07 159.48 21.07C156.81 21.07 154.89 23.17 154.44 25.6C154.02 28.09 155.31 30.31 157.92 30.31ZM169.5 25.69C170.37 20.47 174.21 17.02 179.19 17.02C184.26 17.02 186.66 21.07 185.91 25.45C185.76 26.59 185.34 27.49 184.41 27.49H173.61C173.7 29.95 175.41 31.12 177.69 31.12C179.19 31.12 180.6 30.55 181.65 29.86C181.92 29.65 182.22 29.56 182.4 29.86L183.63 31.78C183.84 32.08 183.72 32.29 183.42 32.56C181.83 34.03 179.22 34.69 176.85 34.69C171.57 34.69 168.69 30.76 169.5 25.69ZM182.07 24.55C182.22 21.91 180.42 20.8 178.71 20.8C176.43 20.8 174.69 22.33 174 24.55H182.07ZM92.64 34.72C94.89 34.72 97.08 34.09 99.09 32.2C99.39 31.93 99.4201 31.57 99.2101 31.36L97.3801 29.32C97.2001 29.11 96.93 29.11 96.72 29.29C95.94 29.86 94.71 30.52 93.24 30.52C90.6 30.52 89.1301 28.45 89.4601 25.87C89.7901 23.29 91.8301 21.22 94.4101 21.22C95.8201 21.22 96.7201 21.73 97.7101 22.72C97.9801 22.99 98.1301 22.99 98.4301 22.75L100.8 20.71C101.04 20.5 101.1 20.29 100.92 20.02C99.48 17.98 97.26 17.02 94.8 17.02C89.82 17.02 85.8 20.71 85.14 25.63C84.42 30.94 87.96 34.72 92.64 34.72Z" fill="white"/>
</svg>
