<svg width="190" height="50" viewBox="0 0 190 50" fill="none" xmlns="http://www.w3.org/2000/svg">
<path fill-rule="evenodd" clip-rule="evenodd" d="M23.8608 23.2497V32.427L36 39.7689L48.152 32.427V20.3654L37.7907 26.6061C36.6523 27.2877 35.3475 27.2877 34.2091 26.6061L20.1128 18.0974C18.6291 17.1927 18.6291 14.9245 20.1128 14.0331L34.2091 5.51135C35.3475 4.82955 36.6523 4.82955 37.7907 5.51135L48.152 11.7782L43.3808 14.6493L36 10.2048L32.5463 12.3026L26.304 16.0913L29.5914 18.0711L36 21.9781L49.0985 14.0855C49.8405 13.6529 50.851 13.7053 51.5928 14.0986C52.3986 14.5312 53 15.3835 53 16.4325V33.2269C53 34.5378 52.3602 35.6784 51.2602 36.3471L37.7907 44.4886C36.6652 45.1704 35.3475 45.1704 34.2091 44.4886L20.7397 36.3471C19.6396 35.6784 19.0128 34.5509 19.0128 33.2269V30.5653V20.3393L23.8608 23.2497Z" fill="white"/>
<path fill-rule="evenodd" clip-rule="evenodd" d="M84.5816 29.8478C84.5816 26.7595 82.9126 24.821 79.3325 24.1104L76.2621 23.5288C74.1855 23.1152 73.3956 22.4044 73.3956 21.1251C73.3956 19.7037 74.6951 18.7732 76.7464 18.7732C78.8739 18.7732 80.4664 19.5873 80.4664 21.5646H84.263C84.263 17.2098 80.5938 15.5685 76.7973 15.5685C72.1596 15.5685 69.4333 18.14 69.4333 21.4742C69.4333 24.4333 71.357 26.3199 74.8225 26.9791L77.8803 27.5736C79.7656 27.9353 80.5685 28.5944 80.5685 29.9511C80.5685 31.5148 79.116 32.4969 76.9629 32.4969C74.2364 32.4969 72.9113 31.3468 72.9113 29.7446H69C69 33.3757 72.0195 35.7792 76.9629 35.7792C81.2437 35.7792 84.5816 33.647 84.5816 29.8478ZM164.362 21.0477C162.286 21.0477 160.617 21.8875 159.89 23.154V15H156.094V35.5339H159.623L159.84 33.6213C160.54 34.8487 162.235 35.8051 164.362 35.8051C168.223 35.8051 171 33.1561 171 28.4264C171 23.8905 168.388 21.0477 164.362 21.0477ZM163.534 32.3936C161.483 32.3936 159.941 30.9204 159.941 28.4264C159.941 25.9711 161.483 24.4462 163.534 24.4593C165.611 24.4721 167.114 25.9711 167.114 28.4264C167.114 30.8816 165.611 32.3936 163.534 32.3936ZM139.964 28.4264C139.964 32.8588 143.009 35.8051 147.303 35.8051C151.584 35.8051 154.629 32.8588 154.629 28.4264C154.629 24.0197 151.584 21.0218 147.303 21.0218C143.009 21.0218 139.964 24.0197 139.964 28.4264ZM143.825 28.4005C143.825 25.8547 145.201 24.2653 147.303 24.2653C149.405 24.2653 150.781 25.8547 150.781 28.4005C150.781 30.9204 149.405 32.5485 147.303 32.5485C145.201 32.5485 143.825 30.9204 143.825 28.4005ZM136.053 25.3378C137.964 24.5366 138.537 22.7147 138.537 21.151C138.537 17.8687 136.27 15.8529 131.989 15.8529H123.758V35.5339H132.549C136.626 35.5339 139.187 33.479 139.187 30.0158C139.187 27.9096 138.104 26.0487 136.053 25.3378ZM134.601 21.6162C134.601 23.0119 133.683 24.1104 131.849 24.1104H127.619V19.2128H131.708C133.709 19.2128 134.601 20.2465 134.601 21.6162ZM132.205 32.174H127.619V27.1988H132.282C134.027 27.1988 135.136 28.1292 135.136 29.7446C135.136 31.3211 134.065 32.174 132.205 32.174ZM115.299 21.0477C113.146 21.0477 111.477 22.0298 110.776 23.2573L110.559 21.319H107.03V41H110.801V33.7246C111.528 34.991 113.248 35.8308 115.299 35.8308C119.35 35.8308 121.937 32.9621 121.937 28.4521C121.937 23.6968 119.134 21.0477 115.299 21.0477ZM114.471 32.4193C112.419 32.4193 110.878 30.9463 110.878 28.4781C110.878 25.997 112.419 24.4593 114.471 24.4593C116.547 24.485 118.051 25.997 118.051 28.4521C118.051 30.9463 116.547 32.4193 114.471 32.4193ZM101.259 19.1352H105.081V15.4393H101.259V19.1352ZM101.31 35.5339H105.081V21.319H101.31V35.5339ZM93.8056 21.0477C91.8181 21.0477 90.4168 21.7843 89.6524 22.9084V15H85.8812V35.5339H89.6524V27.9612C89.6524 25.8806 90.7607 24.5366 92.7611 24.5109C94.6467 24.4593 95.755 25.661 95.755 28.0645V35.5339H99.5263V27.496C99.5263 22.4432 96.4303 21.0477 93.8056 21.0477Z" fill="white"/>
</svg>
