
<svg width="127" height="50" viewBox="0 0 127 50" fill="none" xmlns="http://www.w3.org/2000/svg">
<path d="M27.0544 13.5311C26.9258 13.5203 24.4055 13.482 24.4055 13.482C24.4055 13.482 22.2978 11.4346 22.0896 11.2264C22.012 11.1488 21.9069 11.1085 21.7969 11.0918L21.7979 42.4094L31.2434 40.0615C31.2434 40.0615 27.3894 13.9987 27.3648 13.8199C27.3402 13.6411 27.1831 13.5419 27.0544 13.5311Z" fill="white"/>
<path fill-rule="evenodd" clip-rule="evenodd" d="M27.0529 13.5296C27.1825 13.5404 27.3387 13.6396 27.3633 13.8184C27.3878 13.9972 31.2418 40.0609 31.2418 40.0609L21.7954 42.4098L0 38.6395C0 38.6395 2.60079 18.524 2.69704 17.8158C2.82669 16.8785 2.85812 16.8481 3.85207 16.5357C3.87323 16.5288 4.54487 16.3208 5.61372 15.9897C6.08273 15.8445 6.62822 15.6755 7.22879 15.4895C7.43896 13.9835 8.18052 12.0383 9.15484 10.4901C10.5397 8.28952 12.2477 7.05073 13.9625 7.00161C14.8514 6.97508 15.5929 7.27668 16.1715 7.89558C16.2127 7.94077 16.252 7.98694 16.2913 8.0341C16.3011 8.03326 16.311 8.03241 16.3208 8.03156C16.4031 8.02446 16.4848 8.0174 16.5672 8.0174H16.5721C17.9001 8.01936 18.9991 8.77678 19.7495 10.2091C19.9822 10.6531 20.1453 11.0952 20.2563 11.4548C20.4257 11.4023 20.5776 11.3553 20.7098 11.3144C21.095 11.1951 21.3136 11.1274 21.3151 11.1267C21.4732 11.0795 21.8798 11.0166 22.088 11.2249C22.2962 11.4332 24.404 13.4805 24.404 13.4805C24.404 13.4805 26.9243 13.5188 27.0529 13.5296ZM18.0795 12.1288C18.4677 12.0086 18.8316 11.8959 19.1651 11.7927C18.895 10.9145 18.2546 9.44186 16.9532 9.19528C17.3579 10.2396 17.461 11.4479 17.4738 12.3163C17.6813 12.2521 17.8835 12.1895 18.0795 12.1288ZM12.6946 13.7968L16.3335 12.67C16.3453 11.722 16.2421 10.3201 15.7678 9.32987C15.2629 9.53814 14.8367 9.9026 14.5322 10.2297C13.7131 11.109 13.0462 12.4499 12.6946 13.7968ZM15.0282 8.4133C14.7384 8.22272 14.3996 8.1343 13.9969 8.14314C11.3499 8.21977 9.0409 12.3546 8.45057 15.1103C8.99247 14.9429 9.56142 14.7666 10.1461 14.5854C10.5703 14.4539 11.0028 14.3199 11.4393 14.1848C11.7723 12.4342 12.6071 10.6197 13.6964 9.4507C14.1167 8.99979 14.5646 8.65399 15.0282 8.4133ZM15.4631 22.4944L16.5601 18.389C16.5601 18.389 15.6143 17.9175 13.7659 18.0363C8.96801 18.3389 6.79344 21.6948 7.00267 25.0064C7.14225 27.2171 8.44445 28.1414 9.58581 28.9514C10.4762 29.5833 11.2687 30.1458 11.335 31.1954C11.3713 31.7741 11.0119 32.5924 10.0061 32.6562C8.46607 32.7535 6.54203 31.3015 6.54203 31.3015L5.80637 34.4314C5.80637 34.4314 7.71767 36.4797 11.1897 36.2606C14.0821 36.0779 16.0897 33.7634 15.8766 30.38C15.7126 27.7787 13.8812 26.6042 12.4337 25.6758C11.4879 25.0693 10.7061 24.5678 10.6603 23.8423C10.6386 23.5053 10.6612 22.1634 12.7887 22.0287C14.2393 21.9374 15.4631 22.4944 15.4631 22.4944Z" fill="white"/>
<path d="M43.6811 26.9848C42.5949 26.3953 42.0367 25.8983 42.0367 25.2153C42.0367 24.3462 42.8121 23.7878 44.023 23.7878C45.4326 23.7878 46.6912 24.3773 46.6912 24.3773L47.6839 21.3353C47.6839 21.3353 46.7711 20.6211 44.0844 20.6211C40.3455 20.6211 37.7543 22.7627 37.7543 25.7736C37.7543 27.4807 38.9642 28.7844 40.5783 29.7149C41.8818 30.4594 42.3474 30.9875 42.3474 31.7631C42.3474 32.5699 41.6957 33.2217 40.4858 33.2217C38.6826 33.2217 36.9798 32.2902 36.9798 32.2902L35.9248 35.3322C35.9248 35.3322 37.4981 36.3875 40.1448 36.3875C43.9928 36.3875 46.7546 34.4943 46.7546 31.08C46.7536 29.2502 45.3576 27.9464 43.6811 26.9848Z" fill="white"/>
<path d="M59.0112 20.5912C57.1182 20.5912 55.6287 21.4915 54.4812 22.8567L54.4188 22.8254L56.0632 14.2285H51.7808L47.623 36.1091H51.9055L53.3326 28.6298C53.8908 25.8051 55.3491 24.0678 56.7149 24.0678C57.6764 24.0678 58.0495 24.7196 58.0495 25.6511C58.0495 26.2407 57.9872 26.9549 57.8634 27.5444L56.2502 36.1101H60.5329L62.208 27.2647C62.3944 26.3332 62.5189 25.2166 62.5189 24.4712C62.5171 22.0498 61.245 20.5912 59.0112 20.5912Z" fill="white"/>
<path d="M72.1985 20.5908C67.0469 20.5908 63.6348 25.2464 63.6348 30.4291C63.6348 33.7498 65.6822 36.4187 69.5304 36.4187C74.5881 36.4187 78.0015 31.8878 78.0015 26.5803C78.0015 23.5081 76.2013 20.5908 72.1985 20.5908ZM70.0886 33.1301C68.63 33.1301 68.0093 31.8887 68.0093 30.3366C68.0093 27.885 69.282 23.8813 71.6091 23.8813C73.1296 23.8813 73.6252 25.185 73.6252 26.4576C73.6252 29.0952 72.3543 33.1301 70.0886 33.1301Z" fill="white"/>
<path d="M88.9546 20.5908C86.064 20.5908 84.4238 23.1359 84.4238 23.1359H84.3624L84.6108 20.8393H80.8251C80.6393 22.3915 80.2971 24.7495 79.9566 26.519L76.9775 42.1918H81.26L82.4383 35.8603H82.5321C82.5321 35.8603 83.4107 36.4187 85.0457 36.4187C90.0721 36.4187 93.361 31.2671 93.361 26.0523C93.361 23.1671 92.0883 20.5908 88.9546 20.5908ZM84.8586 33.1915C83.747 33.1915 83.0891 32.5708 83.0891 32.5708L83.803 28.5671C84.2999 25.8983 85.6959 24.1288 87.1857 24.1288C88.4891 24.1288 88.8921 25.339 88.8921 26.4878C88.8921 29.2501 87.2477 33.1915 84.8586 33.1915Z" fill="white"/>
<path d="M99.4735 14.4453C98.1087 14.4453 97.0225 15.5317 97.0225 16.928C97.0225 18.2006 97.829 19.0697 99.0392 19.0697H99.1011C100.436 19.0697 101.583 18.1694 101.615 16.587C101.615 15.3456 100.777 14.4453 99.4735 14.4453Z" fill="white"/>
<path d="M93.4854 36.1086H97.7666L100.684 20.9326H96.3706L93.4854 36.1086Z" fill="white"/>
<path d="M111.576 20.9023H108.597L108.752 20.1881C109 18.7294 109.869 17.4257 111.296 17.4257C112.058 17.4257 112.661 17.643 112.661 17.643L113.499 14.2912C113.499 14.2912 112.754 13.9189 111.171 13.9189C109.651 13.9189 108.131 14.3535 106.983 15.3464C105.524 16.5878 104.841 18.3874 104.5 20.1881L104.377 20.9023H102.39L101.77 24.1304H103.756L101.491 36.1104H105.774L108.039 24.1304H110.987L111.576 20.9023Z" fill="white"/>
<path d="M121.877 20.9336C121.877 20.9336 119.2 27.6792 117.998 31.3614H117.936C117.854 30.1756 116.881 20.9336 116.881 20.9336H112.381L114.958 34.8682C115.02 35.1781 114.989 35.3651 114.865 35.5824C114.367 36.5441 113.53 37.4756 112.537 38.1587C111.73 38.7481 110.831 39.1203 110.117 39.3688L111.296 43.0003C112.165 42.8142 113.964 42.1 115.485 40.6725C117.44 38.8417 119.239 36.017 121.101 32.1682L126.345 20.9326H121.877V20.9336Z" fill="white"/>
</svg>
