
<svg width="122" height="50" viewBox="0 0 122 50" fill="none" xmlns="http://www.w3.org/2000/svg">
<path d="M29.5301 17.4208V21.9642C29.5301 21.9642 27.4761 21.8826 25.9533 21.4745C23.8288 20.9086 22.4631 20.038 22.4631 20.038C22.4631 20.038 21.5201 19.4177 21.4442 19.3742V31.3448C21.4442 32.0141 21.2708 33.6791 20.7397 35.0666C20.046 36.8839 18.9729 38.0755 18.7778 38.3204C18.7778 38.3204 17.4771 39.931 15.1793 41.0192C13.109 41.9986 11.2935 41.9714 10.7461 41.9986C10.7461 41.9986 7.60281 42.1292 4.77383 40.203L4.75757 40.1922C4.4595 39.8874 4.17769 39.5719 3.91755 39.2345C3.01249 38.081 2.4597 36.7207 2.32422 36.3289V36.3235C2.10202 35.6488 1.63052 34.0219 1.69555 32.4548C1.80936 29.6798 2.74152 27.9767 2.98539 27.5523C3.63574 26.3879 4.4866 25.3486 5.49463 24.478C6.38342 23.7271 7.39145 23.1286 8.47535 22.7042C9.15279 22.4213 9.85733 22.2145 10.5781 22.0839C11.1038 21.9914 11.6403 21.937 12.1769 21.9261V26.5239C12.1769 26.5239 9.85191 25.7513 7.99302 27.117C6.69234 28.1291 6.00406 29.1139 5.79812 30.8769C5.78728 32.1773 6.10703 34.011 7.84669 35.2352C8.04721 35.3713 8.24773 35.491 8.44284 35.5944C8.74633 36.0079 9.11485 36.367 9.53758 36.6554C11.2339 37.7817 12.6592 37.8579 14.4747 37.1288C15.6887 36.6445 16.5992 35.5454 17.0273 34.3211C17.2929 33.5594 17.2875 32.7922 17.2875 31.9977V9.42773H21.5201C21.6935 10.4724 22.1813 11.9524 23.4603 13.4216C23.9751 13.9766 24.5496 14.4663 25.1837 14.8798C25.3679 15.0811 26.3218 16.0769 27.5466 16.6917C28.1807 17.0127 28.8418 17.2576 29.5301 17.4208Z" fill="white"/>
<path d="M0.644531 34.918L0.747502 35.2227C0.736663 35.1846 0.698726 35.0758 0.644531 34.918Z" fill="#69C9D0"/>
<path d="M8.47678 22.7021C7.39288 23.1211 6.38486 23.7196 5.49606 24.4759C4.48803 25.352 3.64259 26.3912 2.98683 27.5556C2.74295 27.98 1.81079 29.6831 1.69699 32.4581C1.63195 34.0306 2.10345 35.6521 2.32565 36.3268V36.3323C2.46655 36.7186 3.01934 38.0789 3.91898 39.2378C4.17912 39.5752 4.46093 39.8908 4.759 40.1955C3.79975 39.5317 2.94889 38.7264 2.2281 37.8123C1.33388 36.6696 0.781089 35.3202 0.640182 34.923L0.634762 34.9121V34.9067C0.412563 34.232 -0.0589341 32.6105 0.00609992 31.0325C0.119909 28.2575 1.05206 26.5545 1.29594 26.13C1.94628 24.9656 2.79714 23.9209 3.80517 23.0503C4.69397 22.2995 5.702 21.7009 6.7859 21.2765C7.46334 20.9936 8.16787 20.7868 8.88867 20.6562C9.97257 20.4658 11.0836 20.4495 12.1729 20.6073V21.9186C11.6364 21.9295 11.1052 21.9784 10.5741 22.0709C9.85876 22.207 9.15422 22.4192 8.47678 22.7021Z" fill="white"/>
<path d="M21.525 9.42559H17.2923V32.001C17.2923 32.7954 17.2978 33.5572 17.0322 34.3244C16.6041 35.5432 15.6936 36.6478 14.485 37.1375C12.6641 37.8721 11.2442 37.7904 9.54787 36.6641C9.13056 36.3703 8.75662 36.0112 8.45312 35.6031C9.90013 36.3757 11.1954 36.3649 12.7941 35.7174C13.9973 35.2277 14.9186 34.1231 15.3413 32.9043C15.6069 32.1425 15.6069 31.3753 15.6069 30.5809V8H21.4545C21.4437 8 21.3786 8.56044 21.525 9.42559ZM29.5296 16.1618V17.4187C28.8413 17.2554 28.1801 17.0106 27.546 16.695C26.3212 16.0801 25.3728 15.0844 25.1831 14.8831C25.3999 15.0246 25.6221 15.1551 25.8551 15.2694C27.3455 16.0149 28.8034 16.2379 29.5296 16.1618Z" fill="white"/>
<path d="M42.7554 16.3672H55.979L54.7542 20.0182H51.2966V34.002H47.0368V20.0182H42.75L42.7554 16.3672ZM77.8034 16.3672V20.0182H82.0902V34.002H86.3499V20.0182H89.8076L91.0324 16.3672H77.8034ZM58.8568 20.5351C59.9949 20.5351 60.9162 19.6101 60.9162 18.4675C60.9162 17.3248 59.9949 16.3998 58.8568 16.3998C57.7187 16.3998 56.7974 17.3248 56.7974 18.4675C56.7974 19.6101 57.7187 20.5351 58.8568 20.5351ZM56.7919 34.002H60.965V21.9934H56.7919V34.002ZM75.9878 20.4317H71.1049L66.8993 24.6595V16.3835H62.7534L62.7371 34.0075H66.9264V29.4151L68.2325 28.229L72.2972 34.0075H76.7737L70.8881 25.5573L75.9878 20.4317ZM116.038 25.5573L121.143 20.4317H116.26L112.055 24.6595V16.3835H107.909L107.898 34.0075H112.087V29.4151L113.393 28.229L117.458 34.0075H121.929L116.038 25.5573ZM105.302 26.8687C105.302 30.8516 102.045 34.0782 98.0236 34.0782C94.0023 34.0782 90.7452 30.8516 90.7452 26.8687C90.7452 22.8857 94.0023 19.6591 98.0236 19.6591C102.045 19.6591 105.302 22.8857 105.302 26.8687ZM101.595 26.8687C101.595 24.8881 99.9963 23.2829 98.0236 23.2829C96.0508 23.2829 94.4521 24.8881 94.4521 26.8687C94.4521 28.8492 96.0508 30.4544 98.0236 30.4544C99.9963 30.4544 101.595 28.8492 101.595 26.8687Z" fill="white"/>
</svg>
