
<svg width="156" height="50" viewBox="0 0 156 50" fill="none" xmlns="http://www.w3.org/2000/svg">
<path d="M39.1374 12.7809C37.6907 13.4308 36.1463 13.864 34.5238 14.0609C36.1854 13.0566 37.4561 11.4812 38.0426 9.59077C36.4982 10.5163 34.7779 11.1858 32.9403 11.56C31.4741 9.98462 29.4019 9 27.0755 9C22.6379 9 19.0604 12.6234 19.0604 17.0738C19.0604 17.704 19.1386 18.3145 19.2754 18.9249C12.6092 18.5902 6.70535 15.3803 2.73688 10.4769C2.05266 11.6782 1.64213 13.0566 1.64213 14.5335C1.64213 17.3298 3.04967 19.8111 5.21962 21.2683C3.90983 21.2289 2.65868 20.8548 1.58347 20.264C1.58347 20.3034 1.58347 20.3231 1.58347 20.3625C1.58347 24.2812 4.33991 27.5502 8.01514 28.2788C7.35047 28.456 6.62716 28.5545 5.90384 28.5545C5.39556 28.5545 4.88728 28.4954 4.39855 28.4166C5.41511 31.6265 8.38658 33.9698 11.8859 34.0289C9.14899 36.1951 5.6888 37.4948 1.91581 37.4948C1.27069 37.4948 0.625572 37.4554 0 37.3766C3.55794 39.6609 7.76101 41 12.2964 41C27.056 41 35.1102 28.6923 35.1102 18.0191C35.1102 17.6646 35.1102 17.3298 35.0907 16.9754C36.7133 15.8332 38.0622 14.4154 39.1374 12.7809Z" fill="white"/>
<path d="M54.2777 15.2594C55.5518 14.8851 57.0738 15.812 57.2684 17.149C57.3569 18.2008 57.3569 19.2703 57.3746 20.3221C60.0114 20.3399 62.6659 20.233 65.3027 20.3577C66.2937 20.5182 67.214 21.3204 67.3378 22.3543C67.7272 23.6556 66.7185 25.1887 65.4089 25.4026C62.719 25.6165 60.0114 25.4561 57.3038 25.4917C57.3392 26.49 57.2861 27.4883 57.41 28.4687C57.587 29.4135 58.3833 30.287 59.3566 30.394C61.3918 30.5722 63.4269 30.394 65.4443 30.5544C67.1963 30.8218 68.0634 33.2462 66.8777 34.5653C66.2407 35.7062 64.8249 35.6706 63.71 35.6706C61.6572 35.6349 59.5336 35.9201 57.5339 35.2962C54.5077 34.3692 52.2249 31.3566 52.2426 28.1657C52.1364 24.9035 52.2072 21.6234 52.2072 18.3612C51.9948 17.0064 52.8796 15.4733 54.2777 15.2594Z" fill="white"/>
<path d="M95.4572 15.2241C97.2623 14.7428 99.032 16.775 98.3949 18.5398C98.0055 20.3225 95.4926 20.9464 94.2715 19.6629C92.6611 18.4685 93.4752 15.4737 95.4572 15.2241Z" fill="white"/>
<path d="M100.911 15.8994C102.061 14.6516 104.397 15.1329 104.981 16.7194C105.246 18.609 105.105 20.5342 105.14 22.4417C106.927 22.4595 108.715 22.3704 110.502 22.5843C111.706 22.8695 112.714 24.1173 112.467 25.4187C112.431 26.6843 111.175 27.7717 109.901 27.5935C108.379 27.6826 106.857 27.6469 105.335 27.6648C105.512 28.5204 105.547 29.7504 106.485 30.1783C108.131 30.8379 110.131 30.0357 111.67 31.0161C112.254 31.7292 112.679 32.6383 112.449 33.5653C112.201 34.9023 110.838 35.7401 109.547 35.6331C106.467 36.0075 102.698 35.0805 101.388 31.9074C99.8311 28.0391 99.9904 23.7073 99.9727 19.6073C100.079 18.3773 99.7957 16.7551 100.911 15.8994Z" fill="white"/>
<path d="M114.185 15.9C115.017 15.2761 116.256 14.9018 117.211 15.4544C117.778 15.8109 118.362 16.31 118.468 17.0053C118.662 18.8235 118.574 20.6418 118.592 22.4423C120.379 22.4601 122.166 22.371 123.954 22.5849C125.122 22.8345 126.06 24.011 125.936 25.2589C125.794 26.2928 125.175 27.4158 124.025 27.5584C122.29 27.7011 120.556 27.6298 118.822 27.6298C118.946 28.4498 118.875 29.5728 119.689 30.072C121.512 31.0346 124.078 29.6976 125.493 31.5337C126.52 32.9598 125.706 35.0633 124.095 35.509C121.175 36.0081 117.671 35.7051 115.619 33.2807C114.132 31.3198 113.884 28.7706 113.584 26.4176C113.424 23.8506 113.176 21.2836 113.389 18.7166C113.353 17.7183 113.601 16.7022 114.185 15.9Z" fill="white"/>
<path d="M70.1351 21.3555C71.2677 20.9455 72.4711 21.7833 72.9666 22.7638C73.2143 24.6712 73.002 26.5965 73.1082 28.5217C73.2143 29.8408 74.4885 31.053 75.8512 30.75C76.7537 30.6787 77.4793 29.8943 77.6208 29.0208C77.7624 27.2025 77.6385 25.3664 77.7093 23.5303C77.8332 22.4607 78.7003 21.516 79.7444 21.302C80.5231 21.0881 81.2841 21.5516 81.9034 21.9616C83.3546 24.0829 82.2574 26.846 82.7175 29.1991C82.9829 29.9835 83.62 30.6965 84.4872 30.75C85.7613 31.0174 87.3186 29.93 87.0355 28.5217C87.2125 26.6143 86.7877 24.6177 87.3717 22.7638C87.8318 21.6586 89.2653 20.8742 90.3979 21.4446C91.1588 21.7655 91.8313 22.4251 91.9198 23.2808C92.1144 25.1882 92.0967 27.1134 91.9906 29.0387C91.7251 32.5861 88.5043 35.6879 84.9473 35.6344C83.1776 35.7414 81.5495 34.9035 80.1692 33.9052C79.0189 34.6005 77.8863 35.4027 76.5236 35.5453C73.1259 36.1514 69.5334 33.8518 68.6309 30.5004C68.1531 28.3969 68.277 26.2043 68.3301 24.0651C68.2416 22.9242 68.8963 21.516 70.1351 21.3555Z" fill="white"/>
<path d="M149.083 21.5003C150.588 21.3399 152.11 21.3221 153.614 21.3934C155.118 21.4469 156.392 23.1938 155.773 24.6199C155.401 25.2795 154.888 26.0282 154.074 26.0995C152.623 26.2243 151.172 26.1708 149.721 26.26C148.783 26.3313 147.986 27.08 147.845 28.0248C147.703 29.7896 147.827 31.5722 147.756 33.3548C147.685 34.8344 145.987 36.1357 144.571 35.5118C143.916 35.1375 143.173 34.6027 143.084 33.8005C142.907 31.7505 142.907 29.7004 143.067 27.6504C143.314 24.5486 146.004 21.7856 149.083 21.5003Z" fill="white"/>
<path d="M95.6359 22.1965C96.9455 21.947 98.3081 23.0166 98.4674 24.3179C98.6797 27.2592 98.6266 30.2184 98.5382 33.1597C98.4674 34.3184 97.5471 35.4059 96.3792 35.5663C94.8749 35.9585 93.2645 34.5324 93.4769 32.9815C93.4061 30.0223 93.353 27.0631 93.5123 24.104C93.6362 23.0344 94.6449 22.3213 95.6359 22.1965Z" fill="white"/>
<path d="M139.935 23.2282C137.458 21.2138 133.918 20.9821 130.963 21.9447C129.246 22.5329 127.866 23.9412 127.211 25.6525C126.043 28.5404 126.946 32.2483 129.565 34.0309C131.759 35.867 134.839 35.974 137.511 35.2788C139.033 34.9757 140.625 34.1557 141.263 32.6405C141.705 31.767 141.05 30.5013 140.041 30.4122C138.643 30.1626 137.511 31.1965 136.184 31.4461C134.662 31.7135 132.644 31.5887 131.883 30.0022C134.573 29.8952 137.281 30.0557 139.971 29.8952C140.802 29.8596 141.793 29.5209 142.059 28.6474C142.431 26.6152 141.51 24.5117 139.935 23.2282ZM131.936 26.5439C132.892 24.583 136.166 24.5473 137.157 26.4904C135.423 26.5617 133.671 26.5795 131.936 26.5439Z" fill="white"/>
</svg>
