
<svg width="113" height="50" viewBox="0 0 113 50" fill="none" xmlns="http://www.w3.org/2000/svg">
<path fill-rule="evenodd" clip-rule="evenodd" d="M6.68005 15.0594L10.8021 25.7141L15.1211 15.0594H21.2521L10.7681 39.7325H4.70405L7.80505 32.0872L0.352051 15.0594H6.68005ZM71.4371 14.6816C76.9731 14.6816 81.0101 18.7091 81.0101 24.2216C81.0101 29.7341 76.9731 33.7625 71.4371 33.7625C69.3941 33.7625 67.6741 33.2553 66.3611 32.2775L66.2761 32.2128L66.2031 32.1566V39.7269H60.2951V15.0594H65.5191V16.9034L65.5491 16.8716C66.8361 15.4953 68.7831 14.7341 71.1891 14.6844L71.3161 14.6825H71.4371V14.6816ZM32.0131 14.6816C38.1091 14.6816 42.4301 18.6303 42.4301 24.2216C42.4301 29.7894 38.0951 33.7625 32.0131 33.7625C25.8971 33.7625 21.5551 29.795 21.5551 24.2216C21.5551 18.6247 25.8821 14.6816 32.0131 14.6816V14.6816ZM52.2731 11V15.0594H57.1331V19.8434H52.2731V26.4472C52.2731 27.9247 53.0381 28.7375 54.4321 28.7872L54.5001 28.7881L54.5691 28.7891C55.5141 28.7891 56.2301 28.5566 56.8711 27.9791L56.9311 27.9237L57.0901 27.7709H57.1341V33.0481L56.9531 33.1297C55.9801 33.5656 55.3811 33.7625 53.7231 33.7625C49.0391 33.7625 46.4671 31.3719 46.3671 26.9075L46.3651 26.7716V26.6356L46.3641 19.8434H44.2261V15.0594H46.5251V11H52.2721H52.2731ZM93.9201 14.6816C100.016 14.6816 104.337 18.6303 104.337 24.2216C104.337 29.7894 100.002 33.7625 93.9201 33.7625C87.8041 33.7625 83.4621 29.795 83.4621 24.2216C83.4621 18.6247 87.7901 14.6816 93.9201 14.6816V14.6816ZM109.153 27.6922C110.941 27.6922 112.39 29.0516 112.39 30.7269C112.39 32.4031 110.94 33.7625 109.153 33.7625C107.365 33.7625 105.916 32.4031 105.916 30.7269C105.916 29.0506 107.366 27.6922 109.153 27.6922V27.6922ZM70.5521 19.655C67.8901 19.655 66.0821 21.5019 66.0821 24.2216C66.0821 26.9422 67.8901 28.7891 70.5521 28.7891C73.2481 28.7891 75.0621 26.9478 75.0621 24.2216C75.0621 21.4962 73.2481 19.655 70.5521 19.655V19.655ZM32.0121 19.655C29.3421 19.655 27.5031 21.5112 27.5031 24.2216C27.5031 26.9328 29.3421 28.7891 32.0131 28.7891C34.6491 28.7891 36.4831 26.9272 36.4831 24.2216C36.4831 21.5169 34.6491 19.655 32.0131 19.655H32.0121ZM93.9201 19.655C91.2501 19.655 89.4101 21.5112 89.4101 24.2216C89.4101 26.9328 91.2501 28.7891 93.9201 28.7891C96.5561 28.7891 98.3901 26.9272 98.3901 24.2216C98.3901 21.5169 96.5561 19.655 93.9201 19.655V19.655Z" fill="white"/>
</svg>
