
<svg width="134" height="50" viewBox="0 0 134 50" fill="none" xmlns="http://www.w3.org/2000/svg">
<path d="M39.0585 15.3812C38.5986 13.6682 37.2517 12.3176 35.5435 11.8565C32.4228 11 19.9398 11 19.9398 11C19.9398 11 7.45691 11 4.33618 11.8235C2.66084 12.2847 1.28114 13.6682 0.821246 15.3812C0 18.5106 0 25 0 25C0 25 0 31.5224 0.821246 34.6188C1.28114 36.3318 2.62799 37.6824 4.33618 38.1435C7.48976 39 19.9398 39 19.9398 39C19.9398 39 32.4228 39 35.5435 38.1765C37.2517 37.7153 38.5986 36.3647 39.0585 34.6518C39.8797 31.5224 39.8797 25.0329 39.8797 25.0329C39.8797 25.0329 39.9125 18.5106 39.0585 15.3812ZM15.965 30.9953V19.0047L26.3456 25L15.965 30.9953Z" fill="white"/>
<path d="M66.7306 36.4967C65.9422 35.9697 65.3837 35.1461 65.0552 33.9932C64.7267 32.8732 64.5625 31.3579 64.5625 29.5132V26.9767C64.5625 25.0991 64.7596 23.5838 65.1209 22.4308C65.5151 21.2779 66.1064 20.4544 66.8948 19.9273C67.7161 19.4002 68.7673 19.1367 70.0813 19.1367C71.3624 19.1367 72.4136 19.4002 73.202 19.9273C73.9904 20.4544 74.5488 21.3108 74.9102 22.4308C75.2715 23.5508 75.4686 25.0661 75.4686 26.9767V29.5132C75.4686 31.3908 75.3044 32.8732 74.943 34.0261C74.5817 35.1461 74.0232 36.0026 73.2349 36.5297C72.4465 37.0567 71.3624 37.3202 70.0156 37.3202C68.6359 37.2873 67.519 37.0238 66.7306 36.4967ZM71.1653 33.7297C71.3953 33.1697 71.4938 32.2144 71.4938 30.9297V25.4614C71.4938 24.2097 71.3953 23.2873 71.1653 22.6944C70.9354 22.1014 70.574 21.8379 70.0156 21.8379C69.49 21.8379 69.0958 22.1344 68.8987 22.6944C68.6687 23.2873 68.5702 24.2097 68.5702 25.4614V30.9297C68.5702 32.2144 68.6687 33.1697 68.8987 33.7297C69.0958 34.2897 69.49 34.5861 70.0484 34.5861C70.574 34.5861 70.9354 34.3226 71.1653 33.7297Z" fill="white"/>
<path d="M127.375 29.5476V30.437C127.375 31.557 127.408 32.4134 127.474 32.9734C127.539 33.5334 127.671 33.9617 127.901 34.1923C128.098 34.4558 128.426 34.5876 128.886 34.5876C129.477 34.5876 129.872 34.357 130.102 33.8958C130.332 33.4346 130.43 32.677 130.463 31.5899L133.846 31.7876C133.879 31.9523 133.879 32.1499 133.879 32.4134C133.879 34.0276 133.452 35.2464 132.565 36.037C131.678 36.8276 130.43 37.2229 128.82 37.2229C126.882 37.2229 125.535 36.597 124.747 35.3782C123.959 34.1593 123.564 32.2817 123.564 29.7123V26.6487C123.564 24.0134 123.959 22.1029 124.78 20.884C125.601 19.6652 126.981 19.0723 128.919 19.0723C130.266 19.0723 131.317 19.3358 132.04 19.8299C132.762 20.324 133.255 21.1146 133.551 22.1358C133.846 23.1899 133.978 24.6393 133.978 26.484V29.4817H127.375V29.5476ZM127.868 22.1687C127.671 22.4323 127.539 22.8276 127.474 23.3876C127.408 23.9476 127.375 24.804 127.375 25.957V27.2087H130.266V25.957C130.266 24.837 130.233 23.9805 130.167 23.3876C130.102 22.7946 129.937 22.3993 129.74 22.1687C129.543 21.9381 129.215 21.8064 128.82 21.8064C128.361 21.8064 128.065 21.9052 127.868 22.1687Z" fill="white"/>
<path d="M57.1375 29.2185L52.6699 12.9785H56.579L58.1558 20.3244C58.55 22.1362 58.8457 23.6844 59.0428 24.9691H59.1413C59.2727 24.0468 59.5684 22.5315 60.0283 20.3573L61.6708 12.9785H65.5799L61.0466 29.2185V36.9926H57.1703V29.2185H57.1375Z" fill="white"/>
<path d="M88.1801 19.4668V37.0244H85.0922L84.7637 34.8833H84.6652C83.8439 36.4974 82.5628 37.3209 80.8874 37.3209C79.7377 37.3209 78.8836 36.9256 78.3252 36.168C77.7667 35.4103 77.5039 34.2244 77.5039 32.5774V19.4668H81.4459V32.3468C81.4459 33.1374 81.5444 33.6974 81.7087 34.0268C81.8729 34.3562 82.1686 34.5209 82.5628 34.5209C82.8913 34.5209 83.2198 34.4221 83.5483 34.1915C83.8768 33.9939 84.1067 33.7303 84.2381 33.4009V19.4668H88.1801Z" fill="white"/>
<path d="M108.385 19.4668V37.0244H105.297L104.969 34.8833H104.87C104.049 36.4974 102.768 37.3209 101.093 37.3209C99.9428 37.3209 99.0887 36.9256 98.5302 36.168C97.9718 35.4103 97.709 34.2244 97.709 32.5774V19.4668H101.651V32.3468C101.651 33.1374 101.75 33.6974 101.914 34.0268C102.078 34.3562 102.374 34.5209 102.768 34.5209C103.096 34.5209 103.425 34.4221 103.753 34.1915C104.082 33.9939 104.312 33.7303 104.443 33.4009V19.4668H108.385Z" fill="white"/>
<path d="M98.8922 16.1738H94.983V36.9926H91.1396V16.1738H87.2305V12.9785H98.8922V16.1738Z" fill="white"/>
<path d="M121.43 22.2687C121.2 21.1487 120.806 20.3581 120.28 19.864C119.755 19.3698 118.999 19.1063 118.079 19.1063C117.357 19.1063 116.667 19.304 116.043 19.7322C115.419 20.1275 114.926 20.6875 114.597 21.3463H114.564V12.0898H110.754V36.9934H114.006L114.4 35.3463H114.499C114.794 35.9393 115.254 36.4004 115.878 36.7628C116.503 37.0922 117.16 37.2898 117.915 37.2898C119.262 37.2898 120.215 36.664 120.839 35.4451C121.463 34.2263 121.791 32.2828 121.791 29.6804V26.9134C121.759 24.904 121.66 23.3557 121.43 22.2687ZM117.817 29.4169C117.817 30.7016 117.751 31.6898 117.652 32.4145C117.554 33.1393 117.357 33.6663 117.127 33.9628C116.864 34.2593 116.535 34.424 116.141 34.424C115.813 34.424 115.517 34.3581 115.254 34.1934C114.992 34.0287 114.762 33.7981 114.597 33.5016V23.5534C114.729 23.0922 114.959 22.6969 115.287 22.3675C115.616 22.071 115.977 21.9063 116.338 21.9063C116.733 21.9063 117.061 22.071 117.258 22.3675C117.488 22.6969 117.62 23.224 117.718 23.9487C117.817 24.7063 117.849 25.7604 117.849 27.111V29.4169H117.817Z" fill="white"/>
</svg>
